HIERARCHY
ROOT pelvis
{
	OFFSET 0.000000 0.000000 0.000000
	CHANNELS 6 Xposition Yposition Zposition Xrotation Yrotation Zrotation
	JOINT l_hip
	{
		OFFSET 0.195211 -0.245059 -0.022011
		CHANNELS 3 Xrotation Yrotation Zrotation
		JOINT l_knee
		{
			OFFSET 0.083896 -0.996307 -0.018298
			CHANNELS 3 Xrotation Yrotation Zrotation
			JOINT l_ankle
			{
				OFFSET -0.031606 -1.048662 -0.119000
				CHANNELS 3 Xrotation Yrotation Zrotation
				JOINT l_foot
				{
					OFFSET 0.063841 -0.149483 0.312863
					CHANNELS 3 Xrotation Yrotation Zrotation
					End Site
					{
						OFFSET 0.000000 0.000000 0.000000
					}
				}
			}
		}
	}
	JOINT r_hip
	{
		OFFSET -0.188785 -0.243354 -0.013119
		CHANNELS 3 Xrotation Yrotation Zrotation
		JOINT r_knee
		{
			OFFSET -0.098896 -1.013926 -0.025127
			CHANNELS 3 Xrotation Yrotation Zrotation
			JOINT r_ankle
			{
				OFFSET 0.038376 -1.049454 -0.114596
				CHANNELS 3 Xrotation Yrotation Zrotation
				JOINT r_foot
				{
					OFFSET -0.060300 -0.126955 0.322518
					CHANNELS 3 Xrotation Yrotation Zrotation
					End Site
					{
						OFFSET 0.000000 0.000000 0.000000
					}
				}
			}
		}
	}
	JOINT spine1
	{
		OFFSET -0.006861 0.282462 -0.060688
		CHANNELS 3 Xrotation Yrotation Zrotation
		JOINT spine2
		{
			OFFSET 0.009796 0.349212 -0.004686
			CHANNELS 3 Xrotation Yrotation Zrotation
			JOINT spine3
			{
				OFFSET 0.005545 0.134239 0.076232
				CHANNELS 3 Xrotation Yrotation Zrotation
				JOINT neck
				{
					OFFSET -0.005369 0.569656 -0.136135
					CHANNELS 3 Xrotation Yrotation Zrotation
					JOINT head
					{
						OFFSET 0.009621 0.170484 0.137338
						CHANNELS 3 Xrotation Yrotation Zrotation
						End Site
						{
							OFFSET 0.000000 0.000000 0.000000
						}
					}
				}
				JOINT l_collar
				{
					OFFSET 0.205981 0.322192 -0.100872
					CHANNELS 3 Xrotation Yrotation Zrotation
					JOINT l_shoulder
					{
						OFFSET 0.233388 0.086823 -0.019950
						CHANNELS 3 Xrotation Yrotation Zrotation
						JOINT l_elbow
						{
							OFFSET 0.687295 -0.032736 -0.075278
							CHANNELS 3 Xrotation Yrotation Zrotation
							JOINT l_wrist
							{
								OFFSET 0.651109 0.024639 0.000120
								CHANNELS 3 Xrotation Yrotation Zrotation
								JOINT l_hand
								{
									OFFSET 0.217934 -0.026487 -0.036124
									CHANNELS 3 Xrotation Yrotation Zrotation
									End Site
									{
										OFFSET 0.000000 0.000000 0.000000
									}
								}
							}
						}
					}
				}
				JOINT r_collar
				{
					OFFSET -0.210726 0.316244 -0.114374
					CHANNELS 3 Xrotation Yrotation Zrotation
					JOINT r_shoulder
					{
						OFFSET -0.244017 0.089684 -0.026814
						CHANNELS 3 Xrotation Yrotation Zrotation
						JOINT r_elbow
						{
							OFFSET -0.672913 -0.035979 -0.055153
							CHANNELS 3 Xrotation Yrotation Zrotation
							JOINT r_wrist
							{
								OFFSET -0.670689 0.023586 -0.009661
								CHANNELS 3 Xrotation Yrotation Zrotation
								JOINT r_hand
								{
									OFFSET -0.219937 -0.019827 -0.028502
									CHANNELS 3 Xrotation Yrotation Zrotation
									End Site
									{
										OFFSET 0.000000 0.000000 0.000000
									}
								}
							}
						}
					}
				}
			}
		}
	}
}
MOTION
Frames: 5
Frame Time: 0.016667
0.000000 0.000000 0.000000 0.000000 0.000000 0.000000 -0.748588 -0.793712 12.597775 0.086557 -4.047993 -4.329127 0.000000 0.000000 0.000000 0.000000 0.000000 0.000000 -5.413208 -13.152225 -4.758457 7.674931 -11.494624 5.418690 0.000000 0.000000 0.000000 0.000000 0.000000 0.000000 3.504784 1.809853 1.773010 -21.523609 0.682793 -1.460353 3.622614 3.315651 4.559063 11.259612 -8.850191 3.169613 -2.160294 4.294203 19.677460 -15.048718 9.530490 5.110719 -44.046324 -18.068699 -53.239816 -69.919611 -29.635492 10.059066 0.000000 0.000000 0.000000 0.000000 0.000000 0.000000 -1.730235 -10.360083 -8.316401 -13.816965 7.568945 15.965986 13.241400 -9.025166 -18.072904 0.000000 0.000000 0.000000 0.000000 0.000000 0.000000 
0.000000 0.000000 0.000000 0.000000 0.000000 0.000000 -0.785658 -0.781110 12.584223 0.087007 -4.006639 -4.309933 0.000000 0.000000 0.000000 0.000000 0.000000 0.000000 -5.442670 -13.156499 -4.744472 7.668701 -11.469582 5.394185 0.000000 0.000000 0.000000 0.000000 0.000000 0.000000 3.501417 1.822323 1.755843 -21.566524 0.709722 -1.473865 3.626393 3.341281 4.564352 11.171410 -8.895650 3.146685 -2.273255 4.265930 19.744294 -15.044358 9.543342 5.107432 -43.991011 -18.078446 -53.291617 -70.007342 -29.815206 9.961614 0.000000 0.000000 0.000000 0.000000 0.000000 0.000000 -1.717507 -10.352971 -8.302397 -13.795492 7.535465 16.045347 13.108680 -8.934420 -18.043799 0.000000 0.000000 0.000000 0.000000 0.000000 0.000000 
0.000000 0.000000 0.000000 0.000000 0.000000 0.000000 -0.816527 -0.764066 12.577713 0.094003 -3.967241 -4.293848 0.000000 0.000000 0.000000 0.000000 0.000000 0.000000 -5.463699 -13.167488 -4.729348 7.658468 -11.440325 5.378253 0.000000 0.000000 0.000000 0.000000 0.000000 0.000000 3.501743 1.837973 1.743443 -21.596357 0.739104 -1.485827 3.623393 3.361998 4.568251 11.080991 -8.942263 3.119337 -2.387999 4.232645 19.801025 -15.048557 9.557576 5.097752 -43.948797 -18.080378 -53.332265 -70.064337 -29.955745 9.886238 0.000000 0.000000 0.000000 0.000000 0.000000 0.000000 -1.704384 -10.344494 -8.282508 -13.776821 7.502564 16.125678 12.990449 -8.842597 -18.026475 0.000000 0.000000 0.000000 0.000000 0.000000 0.000000 
0.000000 0.000000 0.000000 0.000000 0.000000 0.000000 -0.850581 -0.734111 12.580083 0.115127 -3.921312 -4.270527 0.000000 0.000000 0.000000 0.000000 0.000000 0.000000 -5.479805 -13.188817 -4.703498 7.639886 -11.408633 5.368730 0.000000 0.000000 0.000000 0.000000 0.000000 0.000000 3.518903 1.860746 1.731320 -21.626393 0.773103 -1.497973 3.605356 3.381129 4.576007 10.944882 -9.013454 3.065465 -2.577588 4.170368 19.865647 -15.059861 9.574394 5.088873 -43.895070 -18.059998 -53.385722 -70.099078 -30.102218 9.826121 0.000000 0.000000 0.000000 0.000000 0.000000 0.000000 -1.693069 -10.331440 -8.257327 -13.752097 7.455570 16.262749 12.868001 -8.718415 -18.030938 0.000000 0.000000 0.000000 0.000000 0.000000 0.000000 
0.000000 0.000000 0.000000 0.000000 0.000000 0.000000 -0.869430 -0.707606 12.588461 0.146465 -3.899916 -4.250047 0.000000 0.000000 0.000000 0.000000 0.000000 0.000000 -5.479693 -13.206809 -4.680792 7.627819 -11.399100 5.372302 0.000000 0.000000 0.000000 0.000000 0.000000 0.000000 3.550609 1.883975 1.723746 -21.638969 0.794470 -1.501755 3.576343 3.392437 4.585802 10.840065 -9.069882 3.009263 -2.758969 4.105481 19.899619 -15.066413 9.578933 5.091141 -43.859165 -18.015332 -53.427193 -70.071732 -30.157279 9.844484 0.000000 0.000000 0.000000 0.000000 0.000000 0.000000 -1.691571 -10.312207 -8.241102 -13.735746 7.421663 16.406563 12.837430 -8.641095 -18.061523 0.000000 0.000000 0.000000 0.000000 0.000000 0.000000 
